<svg xmlns="http://www.w3.org/2000/svg" viewBox="0 0 1600 900"><defs><radialGradient id="g" cx="50%" cy="58%" r="50%"><stop offset="0" stop-color="#ff7a25" stop-opacity=".7"/><stop offset=".18" stop-color="#ff7a25" stop-opacity=".22"/><stop offset="1" stop-color="#071018" stop-opacity="0"/></radialGradient><linearGradient id="sky" x1="0" y1="0" x2="0" y2="1"><stop stop-color="#07101d"/><stop offset=".55" stop-color="#090b10"/><stop offset="1" stop-color="#050505"/></linearGradient></defs><rect width="1600" height="900" fill="url(#sky)"/><g fill="#fff" opacity=".75"><circle cx="0" cy="0" r="1"/><circle cx="83" cy="47" r="2"/><circle cx="166" cy="94" r="3"/><circle cx="249" cy="141" r="1"/><circle cx="332" cy="188" r="2"/><circle cx="415" cy="235" r="3"/><circle cx="498" cy="282" r="1"/><circle cx="581" cy="329" r="2"/><circle cx="664" cy="16" r="3"/><circle cx="747" cy="63" r="1"/><circle cx="830" cy="110" r="2"/><circle cx="913" cy="157" r="3"/><circle cx="996" cy="204" r="1"/><circle cx="1079" cy="251" r="2"/><circle cx="1162" cy="298" r="3"/><circle cx="1245" cy="345" r="1"/><circle cx="1328" cy="32" r="2"/><circle cx="1411" cy="79" r="3"/><circle cx="1494" cy="126" r="1"/><circle cx="1577" cy="173" r="2"/><circle cx="60" cy="220" r="3"/><circle cx="143" cy="267" r="1"/><circle cx="226" cy="314" r="2"/><circle cx="309" cy="1" r="3"/><circle cx="392" cy="48" r="1"/><circle cx="475" cy="95" r="2"/><circle cx="558" cy="142" r="3"/><circle cx="641" cy="189" r="1"/><circle cx="724" cy="236" r="2"/><circle cx="807" cy="283" r="3"/><circle cx="890" cy="330" r="1"/><circle cx="973" cy="17" r="2"/><circle cx="1056" cy="64" r="3"/><circle cx="1139" cy="111" r="1"/><circle cx="1222" cy="158" r="2"/><circle cx="1305" cy="205" r="3"/><circle cx="1388" cy="252" r="1"/><circle cx="1471" cy="299" r="2"/><circle cx="1554" cy="346" r="3"/><circle cx="37" cy="33" r="1"/><circle cx="120" cy="80" r="2"/><circle cx="203" cy="127" r="3"/><circle cx="286" cy="174" r="1"/><circle cx="369" cy="221" r="2"/><circle cx="452" cy="268" r="3"/><circle cx="535" cy="315" r="1"/><circle cx="618" cy="2" r="2"/><circle cx="701" cy="49" r="3"/><circle cx="784" cy="96" r="1"/><circle cx="867" cy="143" r="2"/><circle cx="950" cy="190" r="3"/><circle cx="1033" cy="237" r="1"/><circle cx="1116" cy="284" r="2"/><circle cx="1199" cy="331" r="3"/><circle cx="1282" cy="18" r="1"/><circle cx="1365" cy="65" r="2"/><circle cx="1448" cy="112" r="3"/><circle cx="1531" cy="159" r="1"/><circle cx="14" cy="206" r="2"/><circle cx="97" cy="253" r="3"/><circle cx="180" cy="300" r="1"/><circle cx="263" cy="347" r="2"/><circle cx="346" cy="34" r="3"/><circle cx="429" cy="81" r="1"/><circle cx="512" cy="128" r="2"/><circle cx="595" cy="175" r="3"/><circle cx="678" cy="222" r="1"/><circle cx="761" cy="269" r="2"/><circle cx="844" cy="316" r="3"/><circle cx="927" cy="3" r="1"/><circle cx="1010" cy="50" r="2"/><circle cx="1093" cy="97" r="3"/><circle cx="1176" cy="144" r="1"/><circle cx="1259" cy="191" r="2"/><circle cx="1342" cy="238" r="3"/><circle cx="1425" cy="285" r="1"/><circle cx="1508" cy="332" r="2"/><circle cx="1591" cy="19" r="3"/><circle cx="74" cy="66" r="1"/><circle cx="157" cy="113" r="2"/><circle cx="240" cy="160" r="3"/><circle cx="323" cy="207" r="1"/><circle cx="406" cy="254" r="2"/><circle cx="489" cy="301" r="3"/><circle cx="572" cy="348" r="1"/><circle cx="655" cy="35" r="2"/><circle cx="738" cy="82" r="3"/><circle cx="821" cy="129" r="1"/><circle cx="904" cy="176" r="2"/><circle cx="987" cy="223" r="3"/><circle cx="1070" cy="270" r="1"/><circle cx="1153" cy="317" r="2"/><circle cx="1236" cy="4" r="3"/><circle cx="1319" cy="51" r="1"/><circle cx="1402" cy="98" r="2"/><circle cx="1485" cy="145" r="3"/><circle cx="1568" cy="192" r="1"/><circle cx="51" cy="239" r="2"/><circle cx="134" cy="286" r="3"/><circle cx="217" cy="333" r="1"/><circle cx="300" cy="20" r="2"/><circle cx="383" cy="67" r="3"/><circle cx="466" cy="114" r="1"/><circle cx="549" cy="161" r="2"/><circle cx="632" cy="208" r="3"/><circle cx="715" cy="255" r="1"/><circle cx="798" cy="302" r="2"/><circle cx="881" cy="349" r="3"/><circle cx="964" cy="36" r="1"/><circle cx="1047" cy="83" r="2"/></g><path d="M650 0c80 170 95 270 50 440 80-120 130-235 115-440z" fill="#b8d2ff" opacity=".23"/><g fill="#020406"><path d="M50 520l40-150 40 150h-80zM75 520l25-250 25 250h-50z"/><path d="M108 520l40-150 40 150h-80zM133 520l25-250 25 250h-50z"/><path d="M166 520l40-150 40 150h-80zM191 520l25-250 25 250h-50z"/><path d="M224 520l40-150 40 150h-80zM249 520l25-250 25 250h-50z"/><path d="M282 520l40-150 40 150h-80zM307 520l25-250 25 250h-50z"/><path d="M340 520l40-150 40 150h-80zM365 520l25-250 25 250h-50z"/><path d="M398 520l40-150 40 150h-80zM423 520l25-250 25 250h-50z"/><path d="M456 520l40-150 40 150h-80zM481 520l25-250 25 250h-50z"/><path d="M514 520l40-150 40 150h-80zM539 520l25-250 25 250h-50z"/><path d="M572 520l40-150 40 150h-80zM597 520l25-250 25 250h-50z"/><path d="M630 520l40-150 40 150h-80zM655 520l25-250 25 250h-50z"/><path d="M688 520l40-150 40 150h-80zM713 520l25-250 25 250h-50z"/><path d="M746 520l40-150 40 150h-80zM771 520l25-250 25 250h-50z"/><path d="M804 520l40-150 40 150h-80zM829 520l25-250 25 250h-50z"/><path d="M862 520l40-150 40 150h-80zM887 520l25-250 25 250h-50z"/><path d="M920 520l40-150 40 150h-80zM945 520l25-250 25 250h-50z"/><path d="M978 520l40-150 40 150h-80zM1003 520l25-250 25 250h-50z"/><path d="M1036 520l40-150 40 150h-80zM1061 520l25-250 25 250h-50z"/><path d="M1094 520l40-150 40 150h-80zM1119 520l25-250 25 250h-50z"/><path d="M1152 520l40-150 40 150h-80zM1177 520l25-250 25 250h-50z"/><path d="M1210 520l40-150 40 150h-80zM1235 520l25-250 25 250h-50z"/><path d="M1268 520l40-150 40 150h-80zM1293 520l25-250 25 250h-50z"/><path d="M1326 520l40-150 40 150h-80zM1351 520l25-250 25 250h-50z"/><path d="M1384 520l40-150 40 150h-80zM1409 520l25-250 25 250h-50z"/><path d="M1442 520l40-150 40 150h-80zM1467 520l25-250 25 250h-50z"/><path d="M1500 520l40-150 40 150h-80zM1525 520l25-250 25 250h-50z"/><path d="M1558 520l40-150 40 150h-80zM1583 520l25-250 25 250h-50z"/><path d="M1616 520l40-150 40 150h-80zM1641 520l25-250 25 250h-50z"/></g><ellipse cx="805" cy="720" rx="500" ry="150" fill="url(#g)"/><circle cx="800" cy="650" r="28" fill="#ff8d2a"/><path d="M780 650c20-80 50-80 40 0 40-30 50 20 0 55-50-30-80-10-40-55z" fill="#ffd08c" opacity=".9"/><path d="M1080 550l160-80 170 80v170h-330z" fill="#020304" opacity=".8"/><path d="M1200 500l125 50-65 115-65-110z" fill="#ff8b2b" opacity=".5"/><rect width="1600" height="900" fill="#000" opacity=".22"/></svg>